<svg width="512" height="512" xmlns="http://www.w3.org/2000/svg">

 <g>
  <title>background</title>
  <rect fill="#00ffff" id="canvas_background" height="514" width="514" y="-1" x="-1"/>
 </g>
 <g>
  <title>Layer 1</title>
  <g id="svg_1">
   <g id="svg_2">
    <path id="svg_3" d="m256.001,344.694c-4.142,0 -7.5,3.358 -7.5,7.5l0,8.012c0,4.142 3.358,7.5 7.5,7.5c4.142,0 7.5,-3.358 7.5,-7.5l0,-8.012c0,-4.142 -3.358,-7.5 -7.5,-7.5z"/>
   </g>
  </g>
  <g id="svg_4">
   <g id="svg_5">
    <path id="svg_6" d="m479.755,283.859c-1.015,-11.757 -6.595,-22.274 -14.959,-30.012c7.64,-28.232 9.048,-60.928 3.684,-88.406c-6.421,-32.894 -21.31,-54.521 -41.924,-60.896c-3.798,-1.175 -7.505,-1.902 -11.106,-2.214c0.23,-2.207 0.358,-4.428 0.358,-6.653c0,-35.076 -28.537,-63.613 -63.613,-63.613c-3.663,0 -7.277,0.327 -10.82,0.932c-6.24,-19.416 -24.461,-32.997 -45.294,-32.997c-16.819,0 -31.617,8.78 -40.081,21.989c-8.463,-13.209 -23.261,-21.989 -40.08,-21.989c-20.831,0 -39.051,13.578 -45.292,32.992c-3.54,-0.602 -7.153,-0.927 -10.821,-0.927c-35.077,0 -63.613,28.537 -63.613,63.613c0,2.211 0.118,4.432 0.346,6.629c-3.583,0.323 -7.28,1.059 -11.094,2.238c-20.614,6.375 -35.503,28.002 -41.924,60.896c-5.336,27.338 -3.974,59.843 3.563,87.976c-9.236,8.685 -15.02,21 -15.02,34.647c0,16.309 8.26,31.2 21.601,39.878c-3.661,7.522 -5.569,15.772 -5.569,24.251c0,25.292 16.982,46.678 40.138,53.393c-0.034,0.907 -0.057,1.814 -0.057,2.719c0,39.496 32.133,71.629 71.629,71.629c5.977,0 11.866,-0.77 17.557,-2.211c4.273,19.574 21.729,34.277 42.564,34.277c14.986,0 28.229,-7.606 36.073,-19.16c7.844,11.553 21.086,19.16 36.073,19.16c20.835,0 38.292,-14.703 42.563,-34.275c5.691,1.441 11.58,2.211 17.557,2.211c39.497,0 71.629,-32.133 71.629,-71.629c0,-0.898 -0.022,-1.799 -0.056,-2.699c20.651,-6.038 36.793,-24.279 39.644,-45.933c1.444,-10.969 -0.352,-21.974 -5.082,-31.728c14.555,-9.462 22.963,-26.267 21.426,-44.088zm-34.718,34.228c-2.075,0.878 -3.645,2.642 -4.277,4.804s-0.258,4.494 1.019,6.351c5.688,8.275 8.088,18.388 6.76,28.475c-2.331,17.71 -16.853,32.298 -34.53,34.687c-7.979,1.079 -15.734,-0.084 -22.747,-3.352c1.739,-3.573 3.032,-7.368 3.834,-11.315c0.825,-4.059 -1.797,-8.019 -5.856,-8.843c-4.06,-0.823 -8.019,1.797 -8.843,5.856c-1.272,6.262 -4.346,11.972 -8.888,16.514c-12.703,12.703 -33.373,12.703 -46.076,0c-2.929,-2.929 -7.678,-2.929 -10.606,0c-2.929,2.929 -2.929,7.678 0,10.607c9.276,9.276 21.46,13.914 33.645,13.914s24.369,-4.638 33.645,-13.914c0.138,-0.138 0.27,-0.281 0.406,-0.421c7.955,4.161 16.83,6.332 25.875,6.332c0.137,0 0.274,-0.006 0.41,-0.007c0.002,0.177 0.017,0.354 0.017,0.531c0,31.225 -25.404,56.629 -56.629,56.629c-16.24,0 -31.722,-6.99 -42.477,-19.177c-2.741,-3.106 -7.48,-3.402 -10.586,-0.661c-3.106,2.741 -3.402,7.48 -0.661,10.586c6.207,7.033 13.667,12.679 21.887,16.759c-1.96,13.86 -13.894,24.558 -28.285,24.558c-15.755,0 -28.573,-12.818 -28.573,-28.573l0,-76.154c0,-4.142 -3.358,-7.5 -7.5,-7.5c-4.142,0 -7.5,3.358 -7.5,7.5l0,10.169c-10.154,-10.861 -24.591,-17.668 -40.597,-17.668c-0.173,0 -0.344,0.014 -0.516,0.016l0,-8.548c0,-18.943 -11.223,-36.072 -28.592,-43.638c-3.798,-1.654 -8.217,0.083 -9.872,3.881c-1.654,3.797 0.083,8.217 3.88,9.871c11.896,5.182 19.583,16.914 19.583,29.886l0,10.758c-12.461,3.614 -23.422,11.509 -30.814,22.629c-2.293,3.449 -1.355,8.105 2.094,10.398c3.45,2.293 8.104,1.355 10.398,-2.094c7.558,-11.37 20.207,-18.158 33.838,-18.158c22.385,0 40.597,18.212 40.597,40.597l0,28.056c0,15.755 -12.818,28.573 -28.573,28.573c-14.392,0 -26.326,-10.698 -28.284,-24.557c8.22,-4.08 15.681,-9.726 21.887,-16.759c2.741,-3.105 2.445,-7.845 -0.661,-10.586c-3.105,-2.741 -7.846,-2.445 -10.586,0.661c-10.755,12.187 -26.237,19.177 -42.477,19.177c-31.226,0 -56.629,-25.404 -56.629,-56.629c0,-0.176 0.015,-0.353 0.016,-0.529c0.167,0.001 0.332,0.013 0.5,0.013c10.992,0 21.623,-3.204 30.743,-9.267c3.45,-2.293 4.387,-6.948 2.094,-10.398c-2.293,-3.449 -6.948,-4.387 -10.398,-2.094c-6.652,4.422 -14.411,6.759 -22.439,6.759c-22.385,0 -40.597,-18.212 -40.597,-40.597c0,-8.232 2.464,-16.169 7.125,-22.952c1.276,-1.856 1.65,-4.188 1.019,-6.351c-0.632,-2.162 -2.202,-3.927 -4.277,-4.804c-12.088,-5.115 -19.899,-16.899 -19.899,-30.022c0,-17.965 14.616,-32.581 32.581,-32.581c4.142,0 7.5,-3.358 7.5,-7.5c0,-4.142 -3.358,-7.5 -7.5,-7.5c-6.875,0 -13.408,1.478 -19.316,4.113c-5.866,-24.812 -6.698,-52.658 -2.086,-76.282c5.235,-26.821 16.766,-44.841 31.634,-49.44c9.453,-2.923 17.302,-2.203 24,2.2c13.707,9.014 19.416,30.731 21.457,41.407c-10.48,2.791 -20.12,8.233 -28.06,16.012c-2.959,2.899 -3.008,7.647 -0.109,10.606c2.898,2.958 7.647,3.008 10.606,0.109c9.14,-8.955 21.222,-13.887 34.02,-13.887c14.716,0 28.5,6.649 37.699,17.953c-3.2,4.02 -5.119,9.102 -5.119,14.627l0,0.516l-24.564,0c-4.142,0 -7.5,3.358 -7.5,7.5c0,4.142 3.358,7.5 7.5,7.5l24.564,0l0,25.081l-34.329,0c-3.139,-9.308 -11.946,-16.032 -22.3,-16.032c-12.976,0 -23.532,10.557 -23.532,23.532s10.557,23.532 23.532,23.532c10.354,0 19.161,-6.724 22.3,-16.032l34.329,0l0,25.081l-24.564,0c-4.142,0 -7.5,3.358 -7.5,7.5c0,4.142 3.358,7.5 7.5,7.5l24.564,0l0,0.516c0,12.976 10.557,23.532 23.532,23.532l96.193,0c12.976,0 23.532,-10.557 23.532,-23.532l0,-0.516l24.564,0c4.142,0 7.5,-3.358 7.5,-7.5c0,-4.142 -3.358,-7.5 -7.5,-7.5l-24.562,0l0,-25.081l34.329,0c3.139,9.308 11.946,16.032 22.3,16.032c12.976,0 23.532,-10.557 23.532,-23.532c0,-12.975 -10.557,-23.532 -23.532,-23.532c-10.354,0 -19.161,6.724 -22.3,16.032l-34.329,0l0,-25.081l24.564,0c4.142,0 7.5,-3.358 7.5,-7.5c0,-4.142 -3.358,-7.5 -7.5,-7.5l-24.564,0l0,-0.516c0,-12.976 -10.557,-23.532 -23.532,-23.532l-96.193,0c-1.98,0 -3.903,0.249 -5.742,0.711c-12.019,-15.575 -30.559,-24.76 -50.371,-24.76c-0.528,0 -1.053,0.025 -1.579,0.038c-2.331,-12.572 -9.353,-39.464 -28.056,-51.793c-3.196,-2.107 -6.561,-3.691 -10.082,-4.767c-0.667,-2.437 -0.88,-5.978 -0.88,-8.122c0,-26.805 21.808,-48.613 48.613,-48.613c13.177,0 25.512,5.186 34.733,14.601c2.899,2.96 7.647,3.009 10.606,0.111c2.959,-2.898 3.009,-7.647 0.111,-10.606c-5.891,-6.015 -12.757,-10.7 -20.245,-13.931c4.374,-13.106 16.763,-22.24 30.907,-22.24c17.965,0 32.581,14.615 32.581,32.581l0,28.057c0,20.175 -16.414,36.589 -36.589,36.589c-11.888,0 -23.08,-5.812 -29.938,-15.548c-2.385,-3.386 -7.064,-4.197 -10.45,-1.813c-3.387,2.385 -4.198,7.064 -1.813,10.451c9.664,13.719 25.439,21.91 42.201,21.91c14.289,0 27.237,-5.842 36.589,-15.26l0,47.841c0,4.142 3.358,7.5 7.5,7.5c4.142,0 7.5,-3.358 7.5,-7.5l0,-112.227c0,-17.965 14.616,-32.581 32.581,-32.581c14.15,0 26.544,9.142 30.913,22.257c-7.096,3.063 -13.644,7.421 -19.318,12.981c-2.958,2.899 -3.007,7.647 -0.108,10.606c2.898,2.958 7.647,3.007 10.606,0.108c9.14,-8.956 21.222,-13.888 34.02,-13.888c26.806,0 48.613,21.808 48.613,48.613c0,2.728 -0.229,5.447 -0.677,8.117c-5.563,1.653 -10.718,4.54 -15.344,8.683c-3.086,2.763 -3.347,7.505 -0.583,10.591c2.763,3.085 7.505,3.346 10.59,0.583c7.388,-6.616 16.327,-8.179 27.33,-4.776c14.868,4.599 26.398,22.619 31.634,49.44c4.64,23.768 3.766,51.808 -2.197,76.733c-6.403,-2.921 -13.524,-4.564 -20.984,-4.564c-4.142,0 -7.5,3.358 -7.5,7.5c0,4.142 3.358,7.5 7.5,7.5c17.761,0 32.798,13.03 34.234,29.664c1.223,14.18 -6.723,27.417 -19.774,32.939zm-308.762,-62.087c0,4.705 -3.828,8.532 -8.533,8.532s-8.532,-3.828 -8.532,-8.532c0,-4.704 3.828,-8.532 8.532,-8.532c4.706,0 8.533,3.827 8.533,8.532zm63.098,48.097l0,-96.193c0,-4.705 3.828,-8.532 8.532,-8.532l96.193,0c4.705,0 8.532,3.828 8.532,8.532l0,96.193c0,4.705 -3.828,8.532 -8.532,8.532l-96.193,0c-4.705,0 -8.532,-3.828 -8.532,-8.532zm176.353,-48.097c0,-4.705 3.828,-8.532 8.533,-8.532c4.705,0 8.532,3.828 8.532,8.532s-3.828,8.532 -8.532,8.532c-4.705,0 -8.533,-3.827 -8.533,-8.532z"/>
   </g>
  </g>
  <g id="svg_7">
   <g id="svg_8">
    <path id="svg_9" d="m301.545,72.453c-3.968,-1.181 -8.146,1.079 -9.328,5.049c-1.749,5.878 -2.636,11.993 -2.636,18.176c0,4.142 3.358,7.5 7.5,7.5c4.142,0 7.5,-3.358 7.5,-7.5c0,-4.733 0.677,-9.408 2.013,-13.897c1.182,-3.97 -1.079,-8.146 -5.049,-9.328z"/>
   </g>
  </g>
  <g id="svg_10">
   <g id="svg_11">
    <path id="svg_12" d="m288.065,216.436l-64.129,0c-4.142,0 -7.5,3.358 -7.5,7.5l0,64.129c0,4.142 3.358,7.5 7.5,7.5l64.129,0c4.142,0 7.5,-3.358 7.5,-7.5l0,-64.129c0,-4.143 -3.358,-7.5 -7.5,-7.5zm-7.5,64.128l-49.129,0l0,-49.129l49.129,0l0,49.129z"/>
   </g>
  </g>
  <g id="svg_13"/>
  <g id="svg_14"/>
  <g id="svg_15"/>
  <g id="svg_16"/>
  <g id="svg_17"/>
  <g id="svg_18"/>
  <g id="svg_19"/>
  <g id="svg_20"/>
  <g id="svg_21"/>
  <g id="svg_22"/>
  <g id="svg_23"/>
  <g id="svg_24"/>
  <g id="svg_25"/>
  <g id="svg_26"/>
  <g id="svg_27"/>
 </g>
</svg>